<?xml version="1.0" encoding="UTF-8"?><svg xmlns="http://www.w3.org/2000/svg" viewBox="0 0 203 103.63"><g id="a"><path d="M171.42,10.11C152.7,3.66,127.91,.07,101.59,0c-.24,0-.48,0-.73,0C74.83,0,50.29,3.46,31.72,9.76,5.54,18.64,.02,29.88,0,37.75c-.02,7.87,5.44,19.13,31.58,28.14,15.5,5.34,35.16,8.71,56.4,9.76,2.64,.13,5.3,.23,7.99,.28l-25.09,18.69c-2.21,1.65-2.67,4.78-1.02,7,1,1.34,2.55,2.04,4.11,2.01,1.01-.02,2.02-.34,2.89-.99l36.04-26.85,7.27-5.41-6.64-4.62-37.68-26.22c-2.27-1.58-5.38-1.02-6.96,1.25-1.58,2.27-1.02,5.38,1.25,6.96l26.14,18.2c-3.11-.06-6.2-.18-9.25-.34-19.74-1.07-37.9-4.23-52.18-9.15-15.33-5.29-24.85-12.44-24.84-18.67,.02-6.23,9.57-13.33,24.93-18.54,17.57-5.96,40.96-9.23,65.93-9.23,.24,0,.47,0,.71,0,25.24,.06,48.89,3.46,66.59,9.56,15.33,5.29,24.85,12.44,24.84,18.67-.02,6.23-9.57,13.33-24.93,18.54-12.9,4.38-26.96,7.29-44.46,8.54l7.1,4.94-6.81,5.07c18.53-1.29,33.6-4.4,47.38-9.08,26.18-8.88,31.7-20.12,31.72-27.99s-5.44-19.13-31.58-28.14Z"/></g><g id="b"/></svg>