<?xml version="1.0" encoding="UTF-8"?><svg xmlns="http://www.w3.org/2000/svg" viewBox="0 0 223.68 223.68"><defs><style>.g{fill:#fff;fill-rule:evenodd;}</style></defs><g id="a"><g id="b"><g id="c"><path id="d" class="g" d="M111.84,221.68c-14.29,0-28.84-2.89-42.03-8.36-13.2-5.47-25.53-13.71-35.64-23.81-10.1-10.1-18.34-22.44-23.81-35.64-5.47-13.2-8.36-27.75-8.36-42.03s2.89-28.84,8.36-42.03c5.47-13.2,13.71-25.53,23.81-35.64S56.61,15.83,69.8,10.36C83,4.89,97.55,2,111.84,2s28.84,2.89,42.03,8.36,25.53,13.71,35.64,23.81c10.1,10.1,18.34,22.44,23.81,35.64,5.47,13.2,8.36,27.75,8.36,42.03s-2.89,28.84-8.36,42.03c-5.47,13.2-13.71,25.53-23.81,35.64-10.1,10.1-22.44,18.34-35.64,23.81-13.2,5.47-27.75,8.36-42.03,8.36Z"/><path id="e" d="M170.11,182.52c1.67,4.44,3.77,9.66,5.05,12.48,.45,1.04,.88,1.98,.92,2.08,.09,.22-3.47,3.21-6.41,5.42-4.29,3.21-12.84,7.52-20.67,10.43-12.98,4.81-27.76,7.13-41.47,6.5-2.41-.11-5.42-.32-6.68-.47-2.75-.31-2.66-.25-5.69-3.3-2.1-2.14-3.27-3.63-5.17-6.68-1.31-2.07-3.34-5.71-3.25-5.8,.04-.05,1.08-.48,2.32-.97,9.95-3.99,19.59-10.4,29.09-19.32l2.42-2.28,2.33,.11c5.76,.23,21.05,.31,24.46,.11,6.32-.38,12.95-1.06,18.28-1.9,1.49-.22,2.77-.4,2.84-.38,.07,.02,.81,1.8,1.63,3.97h0Zm-144.38-7.45c1.47,.5,4.72,1.2,7.11,1.51,1.54,.22,7.42,.63,9.19,.65,.07,0,1.36,1.1,2.86,2.44,11.17,10,22.2,16.83,36.26,22.41l3.5,1.4,1.13,2.08c2.33,4.36,4.99,8.28,7.33,10.77,.84,.92,1.51,1.71,1.47,1.76-.14,.14-4.92-.79-8.31-1.63-23.27-5.75-44.07-19.05-58.72-37.62-2.3-2.93-3.18-4.13-3-4.13,.09,0,.61,.16,1.19,.36h0Zm2.73-79.38c4.22,12.46,8.44,21.82,15.59,34.64l2.42,4.36-.97,3.3c-2.17,7.24-3.5,13.97-4.24,21.35-.27,2.68-.29,10.95-.02,13.74,.11,1.13,.14,2.1,.11,2.14-.14,.14-7.11-.34-9.05-.63-3.43-.5-6.29-1.31-9-2.55l-1.15-.52-1.58-2.53c-6.39-10.33-11.04-21.53-13.7-33.13-2.1-9.12-3.03-19.31-2.6-28.36,.22-4.79,.38-5.91,1.67-11.65l.75-3.34,2.69-.11c3.12-.14,10.2-.72,14.38-1.17,1.58-.18,2.93-.29,3-.23,.07,.05,.83,2.17,1.69,4.69h0Zm107.1-5.93c8.24,.32,26.06,.57,33.04,.47l7.09-.11,2.51,4.54c7.11,12.79,11.91,23.65,15.91,35.95l1.06,3.21-2.75,5.32c-7.08,13.59-12.52,22.3-21.5,34.39l-2.26,3.05-4.2,.59c-12.39,1.72-21.6,2.23-33.55,1.85-3.83-.13-7.63-.27-8.48-.32l-1.53-.11-.79-1.72c-3.63-7.85-13.5-26.92-19.18-37.1-1.94-3.45-2.39-4.38-2.26-4.71,.07-.2,6.45-10.58,14.15-23.04l14.01-22.66,2.24,.11c1.24,.07,4.15,.2,6.46,.29h0Zm53.43-40.93c4.38,.43,7.7,1.22,10.99,2.62l1.47,.63,1.06,1.65c4.22,6.52,8.15,14.58,10.92,22.34,4.44,12.46,6.61,27.05,6,40.15-.22,4.78-.4,6.07-1.65,11.64l-.75,3.38h-1.44c-2.32,0-11.35,.72-16.59,1.31-1.81,.22-2.05,.22-2.17-.04-.09-.16-.57-1.58-1.1-3.16-4.27-12.97-8.96-23.4-16.61-37.03l-1.87-3.3,.99-3.3c2.69-9.1,4.11-17.28,4.47-26.04,.11-2.33-.13-8.39-.4-10.4l-.11-.88,2.5,.13c1.36,.07,3.3,.2,4.29,.31h0Zm-94.82-4.15c2.48,.09,5.42,.22,6.55,.29l2.07,.13,.9,1.9c4.2,8.98,14.35,28.55,19.97,38.54,1.22,2.14,1.49,2.77,1.36,3.07-.07,.22-6.45,10.58-14.15,23.06l-14.01,22.66-2.24-.11c-10.9-.54-29.25-.9-39.15-.77l-7.45,.09-1.42-2.53c-8.14-14.58-12.79-24.94-17.01-37.93l-1.04-3.23,2.84-5.48c7.06-13.59,13.06-23.15,21.96-35.02l1.67-2.24,2.07-.31c13.52-1.98,24.35-2.6,37.08-2.12h0ZM133.13,6.29c23.7,4.69,45.79,17.83,61.35,36.51,2.12,2.53,4.83,6.07,4.74,6.16-.04,.04-.68-.14-1.47-.38-3.27-1.04-7.13-1.63-12.36-1.92-1.78-.09-3.38-.18-3.54-.18-.18,0-1.51-1.08-2.98-2.39-11.04-9.91-22.23-16.86-35.95-22.32-1.92-.75-3.59-1.45-3.7-1.54-.13-.09-.81-1.22-1.51-2.53-2.6-4.74-4.85-7.97-7.27-10.52-.74-.77-1.35-1.45-1.35-1.53,0-.14,.36-.09,4.04,.65h0Zm-16.25-2.01c1.92,.11,4.58,.31,5.89,.43,2.84,.31,2.73,.25,5.78,3.32,2.1,2.14,3.27,3.63,5.17,6.68,1.31,2.07,3.34,5.71,3.25,5.8-.04,.05-1.08,.48-2.32,.97-9.98,4-19.56,10.36-29.09,19.32l-2.42,2.28-2.33-.11c-5.75-.23-21.23-.31-24.64-.11-6.09,.36-12.59,1.04-18.19,1.9-1.53,.23-2.84,.36-2.89,.31-.05-.07-.45-1.1-.88-2.28-1.36-3.84-5.39-13.77-6.3-15.57-.18-.38-.34-.7-.34-.75,0-.13,4.6-3.88,6.46-5.26,1.99-1.49,4.4-2.95,7.96-4.81C78.79,7.62,98.26,3.31,116.88,4.28h0Zm37.75,210.88c13.44-5.57,26-13.96,36.28-24.24,10.29-10.29,18.68-22.84,24.24-36.28,5.57-13.44,8.51-28.25,8.51-42.8s-2.95-29.36-8.51-42.8c-5.57-13.44-13.96-26-24.24-36.28-10.29-10.29-22.84-18.68-36.28-24.24C141.2,2.95,126.38,0,111.84,0s-29.36,2.95-42.8,8.51c-13.44,5.57-26,13.96-36.28,24.24-10.29,10.29-18.68,22.84-24.24,36.28C2.95,82.48,0,97.29,0,111.84s2.95,29.36,8.51,42.8c5.57,13.44,13.96,26,24.24,36.28,10.29,10.29,22.84,18.68,36.28,24.24,13.44,5.57,28.25,8.51,42.8,8.51s29.36-2.95,42.8-8.51h0Z"/></g></g></g><g id="f"/></svg>