<?xml version="1.0" encoding="UTF-8"?><svg xmlns="http://www.w3.org/2000/svg" viewBox="0 0 152.51 150.64"><defs><style>.c{fill:#fff;}.d{fill:none;stroke:#000;stroke-linejoin:round;stroke-width:5px;}</style></defs><g id="a"><g><polygon class="d" points="65.7 147.16 74.92 82.62 139.45 82.62 149.29 147.16 115.48 147.16 107.49 115.2 99.5 147.16 65.7 147.16"/><line class="d" x1="67.23" y1="140.7" x2="101.04" y2="140.7"/><line class="d" x1="115.18" y1="140.7" x2="147.75" y2="140.7"/><line class="d" x1="140.07" y1="89.69" x2="74.3" y2="89.69"/></g><path class="d" d="M33.01,19.24c2.21,5.38,9.59,7.44,16.48,4.6s10.68-9.49,8.47-14.87"/><g><path class="c" d="M16.23,28.49c.65-1.04,2.11-2.27,3.24-2.73L72.33,4.01c1.13-.47,3.04-.65,4.24-.4l22.36,4.56c1.2,.24,2.01,1.43,1.8,2.64l-3.28,18.95c-.21,1.21-1.37,2.05-2.58,1.88l-10.09-1.43c-1.21-.17-1.82,.61-1.36,1.75l21.47,52.17c.47,1.13-.08,2.44-1.21,2.91l-48.05,19.78c-1.13,.47-2.44-.08-2.91-1.21L31.54,54.11c-.47-1.13-1.45-1.26-2.19-.28l-6.15,8.12c-.74,.98-2.19,1.23-3.21,.56l-15.96-10.34c-1.03-.67-1.34-2.06-.69-3.1l12.9-20.57Z"/><path class="d" d="M16.23,28.49c.65-1.04,2.11-2.27,3.24-2.73L72.33,4.01c1.13-.47,3.04-.65,4.24-.4l22.36,4.56c1.2,.24,2.01,1.43,1.8,2.64l-3.28,18.95c-.21,1.21-1.37,2.05-2.58,1.88l-10.09-1.43c-1.21-.17-1.82,.61-1.36,1.75l21.47,52.17c.47,1.13-.08,2.44-1.21,2.91l-48.05,19.78c-1.13,.47-2.44-.08-2.91-1.21L31.54,54.11c-.47-1.13-1.45-1.26-2.19-.28l-6.15,8.12c-.74,.98-2.19,1.23-3.21,.56l-15.96-10.34c-1.03-.67-1.34-2.06-.69-3.1l12.9-20.57Z"/></g><path class="d" d="M33.01,19.24c2.21,5.38,9.59,7.44,16.48,4.6s10.68-9.49,8.47-14.87"/></g><g id="b"/></svg>