<?xml version="1.0" encoding="UTF-8"?><svg xmlns="http://www.w3.org/2000/svg" viewBox="0 0 128.52 132.4"><g id="a"><g><path d="M119.52,91.02c-4.26,0-7.72,3.46-7.72,7.72v16.84H16.72v-16.84c0-4.26-3.46-7.72-7.72-7.72s-7.72,3.46-7.72,7.72v32.28H127.25v-32.28c0-4.26-3.46-7.72-7.72-7.72Z"/><path d="M64.26,105.4l34.74-34.74c1.46-1.46,2.26-3.4,2.26-5.46s-.8-4-2.26-5.46c-1.46-1.46-3.4-2.26-5.46-2.26s-4,.8-5.46,2.26l-16.09,16.09V8.1c0-4.26-3.46-7.72-7.72-7.72s-7.72,3.46-7.72,7.72V75.83l-16.09-16.09c-1.46-1.46-3.4-2.26-5.46-2.26s-4,.8-5.46,2.26c-1.46,1.46-2.26,3.4-2.26,5.46s.8,4,2.26,5.46l34.74,34.74Z"/></g></g><g id="b"/></svg>