<?xml version="1.0" encoding="UTF-8"?><svg xmlns="http://www.w3.org/2000/svg" viewBox="0 0 179.89 179.9"><g id="a"><g id="b"><g><path d="M32.75,168.15c-7.06-7.07-13.96-13.98-20.93-20.95,1.87-1.86,3.64-3.6,5.4-5.36,13.98-13.97,27.95-27.95,41.92-41.92,.11-.11,.2-.23,.32-.32,.51-.36,.51-.72,.18-1.27-3.13-5.15-5.51-10.64-7.07-16.46-3.45-12.9-3.08-25.71,1.29-38.32,4.62-13.32,12.8-24.03,24.39-32.07C88.14,4.62,99.11,.87,111.11,.13c10.88-.67,21.3,1.26,31.19,5.83,9.45,4.37,17.4,10.69,23.82,18.9,6.41,8.19,10.65,17.39,12.57,27.6,2.65,14.14,.95,27.77-5.39,40.73-6.62,13.53-16.8,23.57-30.36,30.1-10.08,4.86-20.78,6.84-31.96,6.14-10.54-.66-20.33-3.73-29.37-9.16-.59-.35-.92-.31-1.4,.18-15.54,15.57-31.1,31.12-46.64,46.68-.27,.27-.47,.6-.81,1.04Zm82.32-47.71c30.61,.06,55.56-24.84,55.68-55.57,.11-30.62-24.83-55.67-55.48-55.75-30.78-.08-55.81,24.86-55.84,55.63-.03,30.67,24.91,55.62,55.65,55.69Z"/><path d="M6.85,152.21c6.96,6.96,13.86,13.85,20.91,20.9-1.95,1.72-3.76,3.71-5.93,5.15-4.14,2.74-9.71,1.93-13.22-1.6-1.77-1.78-3.55-3.56-5.33-5.33-4.23-4.21-4.39-10.8-.33-15.19,1.26-1.36,2.61-2.62,3.91-3.92Z"/></g></g></g><g id="c"/></svg>