<?xml version="1.0" encoding="UTF-8"?><svg xmlns="http://www.w3.org/2000/svg" viewBox="0 0 178.51 150.64">
    <defs>
        <style>
            .c {
                fill: none;
                stroke-linejoin: round;
                stroke-width: 7.04px;
            }
        </style>
    </defs>

    <path class="c" d="M66.4,3.52c0,10.62,11.03,19.23,24.63,19.23s24.63-8.61,24.63-19.23" />
    <path class="c"
        d="M37.03,5.62c1.61-1.15,4.56-2.1,6.54-2.1h92.53c1.98,0,4.95,.9,6.6,2.01l30.67,20.61c1.65,1.11,2.13,3.38,1.07,5.06l-16.59,26.34c-1.06,1.68-3.32,2.23-5.03,1.22l-14.21-8.36c-1.71-1.01-3.11-.21-3.11,1.78v91.33c0,1.98-1.62,3.6-3.6,3.6H47.78c-1.98,0-3.6-1.62-3.6-3.6V53.39c0-1.98-1.4-2.78-3.11-1.78l-14.21,8.36c-1.71,1.01-4.03,.49-5.16-1.14L4.17,33.52c-1.13-1.63-.73-3.91,.88-5.06L37.03,5.62Z" />


</svg>