<?xml version="1.0" encoding="UTF-8"?><svg xmlns="http://www.w3.org/2000/svg" viewBox="0 0 178.52 150.63"><defs><style>.d{fill:none;stroke:#000;stroke-linejoin:round;stroke-width:7.04px;}</style></defs><g id="a"><g id="b"><path class="d" d="M37.02,5.62c1.61-1.15,4.56-2.1,6.54-2.1h92.53c1.98,0,4.95,.9,6.6,2.01l30.67,20.61c1.65,1.11,2.13,3.38,1.07,5.06l-16.59,26.34c-1.06,1.68-3.32,2.23-5.03,1.22l-14.21-8.36c-1.71-1.01-3.11-.21-3.11,1.78v91.33c0,1.98-1.62,3.6-3.6,3.6H47.77c-1.98,0-3.6-1.62-3.6-3.6V53.39c0-1.98-1.4-2.78-3.11-1.78l-14.21,8.36c-1.71,1.01-4.03,.49-5.16-1.14L4.16,33.52c-1.13-1.63-.73-3.91,.88-5.06L37.02,5.62Z"/><g><path d="M61.06,94.87v-28.24c0-8.59,4.53-13.5,12.81-13.5s12.81,4.91,12.81,13.5v28.24c0,8.59-4.53,13.5-12.81,13.5s-12.81-4.91-12.81-13.5Zm17.19,.54v-29.31c0-3.84-1.69-5.29-4.37-5.29s-4.37,1.46-4.37,5.29v29.31c0,3.84,1.69,5.29,4.37,5.29s4.37-1.46,4.37-5.29Z"/><path d="M91.75,94.87v-28.24c0-8.59,4.53-13.5,12.81-13.5s12.81,4.91,12.81,13.5v28.24c0,8.59-4.53,13.5-12.81,13.5s-12.81-4.91-12.81-13.5Zm17.19,.54v-29.31c0-3.84-1.69-5.29-4.37-5.29s-4.37,1.46-4.37,5.29v29.31c0,3.84,1.69,5.29,4.37,5.29s4.37-1.46,4.37-5.29Z"/></g></g></g><g id="c"/></svg>