<?xml version="1.0" encoding="UTF-8"?><svg xmlns="http://www.w3.org/2000/svg" viewBox="0 0 178.52 150.63"><defs><style>.d{fill:none;stroke:#000;stroke-linejoin:round;stroke-width:7.04px;}</style></defs><g id="a"><g id="b"><g><path class="d" d="M66.39,3.52c0,10.62,11.03,19.23,24.63,19.23s24.63-8.61,24.63-19.23"/><path class="d" d="M37.02,5.62c1.61-1.15,4.56-2.1,6.54-2.1h92.53c1.98,0,4.95,.9,6.6,2.01l30.67,20.61c1.65,1.11,2.13,3.38,1.07,5.06l-16.59,26.34c-1.06,1.68-3.32,2.23-5.03,1.22l-14.21-8.36c-1.71-1.01-3.11-.21-3.11,1.78v91.33c0,1.98-1.62,3.6-3.6,3.6H47.77c-1.98,0-3.6-1.62-3.6-3.6V53.39c0-1.98-1.4-2.78-3.11-1.78l-14.21,8.36c-1.71,1.01-4.03,.49-5.16-1.14L4.16,33.52c-1.13-1.63-.73-3.91,.88-5.06L37.02,5.62Z"/></g><path d="M65.49,55.6c-.4-1.51,.33-2.27,1.64-2.94,5.33-2.77,10.99-4.35,16.93-4.99,10.15-1.09,19.99,.11,29.3,4.48,2.97,1.39,2.58,.63,2.36,4.07-.58,8.91-3.86,16.91-8.45,24.43-3.59,5.87-8.02,10.99-13.84,14.75-3.27,2.11-2.26,2.13-5.5,.04-7.37-4.76-12.5-11.49-16.49-19.17-3.06-5.9-5.17-12.11-5.81-18.76-.06-.63-.09-1.26-.13-1.9h-.01Z"/></g></g><g id="c"/></svg>