<?xml version="1.0" encoding="UTF-8"?><svg xmlns="http://www.w3.org/2000/svg" viewBox="0 0 238.74 270.05"><g id="a"><path d="M203.78,66.38l.06-.06c-20.42-20.45-47.51-32.79-76.27-34.74l-1.11,16.42c13.54,.92,26.64,4.53,38.63,10.48l.03,.04c33.86,16.87,57.18,51.83,57.18,92.16,0,56.75-46.17,102.92-102.92,102.92S16.45,207.43,16.45,150.68c0-50.42,36.46-92.46,84.39-101.21-2.03-4.98-2.43-10.63-1.03-16.11,.04-.15,.1-.29,.14-.44C43.34,42.22,0,91.47,0,150.68c0,65.82,53.55,119.37,119.37,119.37s119.37-53.55,119.37-119.37c0-32.88-13.37-62.69-34.96-84.3Z"/><path d="M190.06,5.86c-.65-3.51-3.22-5.86-6.41-5.86-1,0-1.98,.24-2.94,.72l-60.55,30.85c-2.1,1.07-3.75,3.26-4.41,5.85-.66,2.59-.27,5.3,1.06,7.25l38.31,56.29c.9,1.32,2.2,2.25,3.67,2.63,.49,.12,.99,.18,1.49,.18,2.04,0,4.05-1.03,5.51-2.82,2.57-3.16,2.92-7.89,.8-11l-32.56-47.83,51.44-26.21c3.35-1.71,5.31-6.02,4.57-10.04Z"/></g><g id="b"/></svg>