<?xml version="1.0" encoding="UTF-8"?><svg xmlns="http://www.w3.org/2000/svg" viewBox="0 0 166.51 147.84"><g id="a"><path d="M166.51,71.08c-1.34,1.75-2.54,3.64-4.05,5.22-19,19.8-38.06,39.55-57.08,59.34-2.02,2.11-4.24,3.51-7.26,2.9-3.55-.72-5.59-3.52-5.6-7.68-.03-8.81,0-17.62,0-26.44,0-.78,0-1.57,0-2.24-.27-.2-.38-.35-.5-.35-23.46-1.53-44.71,3.81-62.37,20.2-6.63,6.15-11.91,13.32-16.07,21.35-2.09,4.03-5.91,5.47-9.55,3.71-2.32-1.13-3.83-3.01-3.88-5.59-.26-13.65-.61-27.36,3.85-40.53,11.52-34.03,34.8-55.02,70.04-62.38,5.26-1.1,10.75-1.12,16.13-1.64,.7-.07,1.4-.08,2.35-.12v-2.44c0-8.38,.12-16.76-.05-25.14-.09-4.24,1.14-7.44,5.14-9.26h3.47c1.65,1.24,3.49,2.29,4.91,3.75,18.87,19.51,37.7,39.06,56.49,58.65,1.52,1.58,2.71,3.47,4.05,5.22v3.47Z"/></g><g id="b"/></svg>