<?xml version="1.0" encoding="UTF-8"?><svg xmlns="http://www.w3.org/2000/svg" viewBox="0 0 104.61 175.19">
    <defs>
        <style>
            .c {
                fill: none;
                stroke-linejoin: round;
                stroke-width: 5.93px;
            }
        </style>
    </defs>

    <path class="c"
        d="M49.7,28.51l1.11,36.33s-2.49,27.22-14.78,40.34c-12.3,13.12-47.53,37.85-26.53,59.68,21,21.83,43.66-11.47,50.29-15.34,6.63-3.87,36.89-21.97,40.62-37.85,3.73-15.89-1.93-19.48-4.14-32.33-2.21-12.85,1.38-69.06,1.38-70.44s-.14-5.94-5.53-5.94H54.4s-4.42,.55-4.42,4.42-.28,21.12-.28,21.12Z" />
    <path class="c" d="M7.46,137.23s33.07-6.18,32.72,29.45" />
    <path class="c" d="M97.34,86.42s-25.74,13.01-8.47,41.38" />
    <line class="c" x1="52.52" y1="37.12" x2="97.23" y2="37.12" />

</svg>