<?xml version="1.0" encoding="UTF-8"?><svg xmlns="http://www.w3.org/2000/svg" viewBox="0 0 138.42 105.86"><defs><style>.c{fill:#fc5130;}.d{fill:#fff;}.e{fill:#303030;}</style></defs><g id="a"><path class="e" d="M0,0H138.42V105.86H0V0Z"/><path class="c" d="M116.27,53.68h-16.59v-16.76h-14.78v16.76h-16.54v14.82h16.54v16.72h14.78v-16.72h16.59v-14.82Z"/><path class="d" d="M48.83,85.53c-4.97,.02-9.91-.88-14.56-2.65-4.49-1.66-8.61-4.21-12.09-7.5l8.25-10.45c4.94,4.67,11.51,7.22,18.31,7.1,2.43,0,4.41-.44,5.73-1.28,1.46-.88,2.16-2.16,2.16-3.88s-.84-3-2.47-3.97c-2.76-1.45-5.7-2.53-8.73-3.22l-3.84-1.01c-4.81-1.05-9.23-3.4-12.79-6.79-2.97-3.1-4.56-7.27-4.41-11.56,0-4.01,1.01-7.5,3.09-10.54,2.16-3.08,5.14-5.5,8.6-6.97,8.5-3.28,17.92-3.21,26.38,.18,4.37,1.76,8.2,4.15,11.56,7.19l-8.51,10.72c-2.21-1.9-4.76-3.53-7.72-4.98-2.74-1.36-5.76-2.08-8.82-2.12-2.47,0-4.37,.44-5.69,1.24-1.27,.77-2.01,2.18-1.94,3.66,0,1.46,.66,2.78,2.03,3.84,1.41,1.06,3.75,2.07,7.1,3l4.68,1.32c6.75,1.76,11.47,4.32,14.25,7.5,2.82,3.22,4.19,6.97,4.19,11.2,0,3.97-1.01,7.5-3.09,10.45-2.17,3.09-5.17,5.5-8.65,6.97-3.71,1.68-8.07,2.51-13.01,2.51v.04Z"/><path class="e" d="M34.27,82.88l.4-1.01-.44,1.01h.04Zm-12.09-7.5l-.88-.71-.62,.79,.71,.71,.79-.79Zm8.25-10.45l.71-.79-.88-.79-.71,.88,.88,.71Zm8.25,5.2l.44-1.01-.44,1.01Zm15.44-7.28l.62-.93-.57,.93h-.04Zm-8.69-3.18l.31-1.06-.31,1.06Zm-3.84-1.01l.26-1.06-.26,1.06Zm-12.79-6.79l-.84,.79,.79-.79h.04Zm-1.32-22.05l.88,.57-.88-.62v.04Zm8.6-7.01l.44,1.01-.44-1.01Zm37.93,7.37l.88,.66,.66-.79-.79-.71-.75,.84Zm-8.51,10.72l-.71,.88,.88,.71,.71-.88-.88-.71Zm-7.72-4.94l-.49,1.01,.44-1.01h.04Zm-14.51-.88l-.57-.88,.57,.88Zm.09,7.5l.71-.88-.71,.88Zm7.1,3l.31-1.06-.31,1.06Zm4.68,1.32l-.26,1.01,.26-1.06v.04Zm14.25,7.5l-.79,.75,.79-.71v-.04Zm1.1,21.66l.88,.66-.88-.66Zm-8.65,6.97l.44,1.01-.44-1.01Zm-13.01,1.41c-4.84,.02-9.63-.85-14.16-2.56l-.79,2.03c4.79,1.82,9.87,2.75,15,2.73v-2.21h-.04Zm-14.16-2.56c-4.37-1.62-8.36-4.11-11.73-7.32l-1.54,1.63c3.53,3.35,7.72,5.95,12.48,7.72l.79-2.03Zm-11.64-5.82l8.25-10.41-1.72-1.37-8.25,10.41,1.76,1.37h-.04Zm6.62-10.28c2.53,2.28,5.44,4.1,8.6,5.38l.88-2.03c-2.92-1.19-5.6-2.87-7.94-4.98l-1.5,1.63h-.04Zm8.6,5.38c3.18,1.32,6.7,1.98,10.5,1.98v-2.21c-3.53,0-6.75-.57-9.66-1.76l-.84,1.98Zm10.5,1.98c2.56,0,4.72-.44,6.35-1.46l-1.15-1.85c-1.61,.82-3.4,1.2-5.2,1.1v2.21Zm6.35-1.46c1.76-1.06,2.65-2.73,2.65-4.81h-2.21c0,1.32-.53,2.29-1.59,2.96l1.15,1.85Zm2.65-4.81c0-2.12-1.1-3.79-3-4.94l-1.15,1.85c1.32,.88,1.94,1.9,1.94,3.09h2.21Zm-3-4.94c-2.84-1.49-5.87-2.6-9-3.31l-.57,2.12c4.15,1.1,6.88,2.12,8.38,3.09l1.19-1.9Zm-9-3.31l-3.88-1.01-.53,2.12,3.84,1.01,.57-2.12Zm-3.88-1.01c-4.62-.99-8.88-3.24-12.31-6.48l-1.59,1.54c3.72,3.54,8.34,5.99,13.37,7.06l.53-2.12Zm-12.31-6.48c-2.77-2.9-4.24-6.8-4.1-10.81h-2.21c0,4.9,1.59,9.04,4.72,12.35l1.59-1.54Zm-4.1-10.81c0-3.79,1.01-7.1,2.96-9.92l-1.81-1.24c-2.21,3.22-3.35,6.93-3.35,11.16h2.21Zm2.96-9.92c2.04-2.91,4.85-5.18,8.12-6.57l-.88-2.03c-3.64,1.56-6.78,4.11-9.04,7.37l1.76,1.24h.04Zm8.12-6.57c3.91-1.64,8.11-2.44,12.35-2.34v-2.21c-4.54-.1-9.05,.75-13.23,2.51l.88,2.03Zm12.35-2.34c4.54-.02,9.03,.85,13.23,2.56l.79-2.07c-4.47-1.8-9.25-2.72-14.07-2.69v2.21h.04Zm13.23,2.56c4.19,1.68,7.94,3.97,11.2,6.93l1.46-1.63c-3.49-3.13-7.51-5.62-11.87-7.37l-.84,2.07h.04Zm11.03,5.43l-8.47,10.81,1.72,1.32,8.51-10.76-1.76-1.37Zm-6.88,10.63c-2.43-2.06-5.13-3.78-8.03-5.12l-.88,1.94c2.71,1.27,5.23,2.9,7.5,4.85l1.46-1.72-.04,.04Zm-8.03-5.12c-3.09-1.5-6.18-2.21-9.26-2.21v2.21c2.69,0,5.51,.62,8.34,1.98l.93-1.98Zm-9.26-2.21c-2.17-.13-4.34,.35-6.26,1.37l1.19,1.9c1.06-.71,2.69-1.1,5.03-1.1v-2.21l.04,.04Zm-6.26,1.37c-1.63,1.06-2.47,2.65-2.47,4.59h2.21c0-1.24,.44-2.07,1.46-2.73l-1.19-1.85Zm-2.47,4.59c0,1.9,.88,3.44,2.47,4.72l1.32-1.76c-1.1-.88-1.59-1.9-1.59-2.96h-2.21Zm2.47,4.72c1.54,1.19,4.1,2.25,7.5,3.18l.57-2.12c-2.39-.53-4.66-1.48-6.7-2.82l-1.32,1.76h-.04Zm7.5,3.18l4.68,1.32,.57-2.16-4.68-1.32-.57,2.16Zm4.68,1.32c6.62,1.76,11.12,4.23,13.67,7.19l1.68-1.46c-2.96-3.44-7.94-6.04-14.78-7.9l-.57,2.12v.04Zm13.67,7.19c2.65,3,3.93,6.48,3.93,10.45h2.21c0-4.5-1.5-8.51-4.41-11.91l-1.68,1.46h-.04Zm3.93,10.45c0,3.79-.97,7.06-2.87,9.84l1.76,1.24c2.21-3.18,3.31-6.88,3.31-11.07h-2.21Zm-2.87,9.84c-2.06,2.93-4.9,5.23-8.2,6.62l.88,1.98c3.88-1.76,6.97-4.19,9.13-7.32l-1.81-1.28Zm-8.2,6.62c-3.98,1.65-8.26,2.46-12.57,2.38v2.21c5.07,0,9.57-.88,13.45-2.6l-.88-2.03v.04Z"/></g><g id="b"/></svg>